# xmcd
#
# Track frame offsets:
#	183
#	13308
#	29973
#	48310
#
# Disc length: 1041 seconds
#
# Revision: 1
# Processed by: cddbd v1.5.1PL0 Copyright (c) Steve Scherf et al.
# Submitted via: audiograbber 1.83.01
#
DISCID=34040f04
DTITLE=Various Artist - Blues 4 You
DYEAR=1900
DGENRE=Blues
TTITLE0=The Paladins - Going Down To Big Mary's
TTITLE1=Lonnie Brooks - Jealous Man
TTITLE2=Lil' Ed And The Blues Imperials - She's Fine She's Mine
TTITLE3=Koko Taylor - Wang Dang Doodle
EXTD=
EXTT0=
EXTT1=
EXTT2=
EXTT3=
PLAYORDER=
